<svg width="35" height="35" viewBox="0 0 35 35" fill="none" xmlns="http://www.w3.org/2000/svg">
<g clip-path="url(#clip0_2350_1611)">
<path d="M0 32.8125H35V35H0V32.8125Z" fill="#AEA07A"/>
<path d="M0 0V13.125C0.0109375 14.7262 0.877188 16.1219 2.16781 16.8766L2.1875 30.625H21.875V19.6875H28.4375V30.625H32.8125V16.8875C34.1228 16.1219 34.9891 14.7262 35 13.1272V0L0 0ZM8.75 4.375H13.125V13.125C13.125 14.3325 12.145 15.3125 10.9375 15.3125C9.73 15.3125 8.75 14.3325 8.75 13.125V4.375ZM4.375 15.3125C3.1675 15.3125 2.1875 14.3325 2.1875 13.125V4.375H6.5625V13.125C6.5625 14.3325 5.5825 15.3125 4.375 15.3125ZM17.5 26.25H6.5625V19.6875H17.5V26.25ZM19.6875 13.125C19.6875 14.3325 18.7075 15.3125 17.5 15.3125C16.2925 15.3125 15.3125 14.3325 15.3125 13.125V4.375H19.6875V13.125ZM26.25 13.125C26.25 14.3325 25.27 15.3125 24.0625 15.3125C22.855 15.3125 21.875 14.3325 21.875 13.125V4.375H26.25V13.125ZM32.8125 13.125C32.8125 14.3325 31.8325 15.3125 30.625 15.3125C29.4175 15.3125 28.4375 14.3325 28.4375 13.125V4.375H32.8125V13.125Z" fill="#AEA07A"/>
</g>
<defs>
<clipPath id="clip0_2350_1611">
<rect width="35" height="35" fill="white"/>
</clipPath>
</defs>
</svg>
